<svg width="124.000000" height="24.000000" viewBox="0 0 124 24" fill="none" xmlns="http://www.w3.org/2000/svg" xmlns:xlink="http://www.w3.org/1999/xlink">
	<desc>
			Created with Pixso.
	</desc>
	<defs/>
	<rect id="logo-sign" rx="11.500000" width="23.000000" height="23.000000" transform="translate(0.500000 0.500000)" fill="#EF1C31" fill-opacity="1.000000"/>
	<path id="Vector" d="M14.37 9.06C14.37 9.97 13.65 10.7 12.76 10.7C11.86 10.7 11.14 9.97 11.14 9.06C11.14 8.16 11.86 7.43 12.76 7.43C13.65 7.43 14.37 8.16 14.37 9.06Z" fill="#FFFFFF" fill-opacity="1.000000" fill-rule="nonzero"/>
	<path id="Vector" d="M7.76 11.91L9.95 13.21L4.87 19.95C4.65 20.25 5.06 20.61 5.32 20.35L12.62 13.34C13.22 12.76 12.9 11.76 12.09 11.63L8.1 10.99C7.55 10.9 7.29 11.63 7.76 11.91Z" fill="#FFFFFF" fill-opacity="1.000000" fill-rule="nonzero"/>
	<path id="Vector" d="M12.28 14.8L10.57 16.44L11.72 17.98L9.83 19.09C9.53 19.26 9.73 19.73 10.07 19.63L13.36 18.66C14.02 18.47 14.29 17.69 13.9 17.13L12.28 14.8Z" fill="#FFFFFF" fill-opacity="1.000000" fill-rule="nonzero"/>
	<path id="Vector" d="M15.31 4.91C16.12 5.32 16.87 5.87 17.54 6.56C17.92 6.96 18.24 7.37 18.53 7.81C18.68 8.04 18.99 8.11 19.22 7.98L21.49 6.65C21.73 6.5 21.81 6.19 21.65 5.96C21.46 5.68 21.26 5.42 21.03 5.15C19.78 3.65 18.39 2.38 16.5 1.62C16.25 1.52 15.96 1.66 15.87 1.92L15.04 4.27C14.96 4.52 15.08 4.79 15.31 4.91Z" fill="#FFFFFF" fill-opacity="1.000000" fill-rule="nonzero"/>
	<path id="Vector" d="M3.67 7.21C4.7 6.23 6.17 5.19 7.27 4.7C7.31 4.69 7.35 4.67 7.39 4.65C7.67 4.53 7.8 4.21 7.67 3.95L7.05 2.64C6.93 2.39 6.62 2.28 6.38 2.43C4.94 3.28 3.91 4.35 3.17 5.31C2.91 5.65 2.69 5.98 2.48 6.32C2.35 6.54 2.41 6.81 2.61 6.96L3 7.26C3.2 7.41 3.49 7.39 3.67 7.21Z" fill="#FFFFFF" fill-opacity="1.000000" fill-rule="nonzero"/>
	<path id="Vector" d="M14.72 1.1C14.15 0.99 13.53 0.93 12.88 0.91C10.97 0.84 9.38 1.13 8.05 1.63C7.79 1.73 7.67 2.03 7.79 2.29L8.53 3.85C8.63 4.06 8.87 4.18 9.11 4.13C10.58 3.82 12.16 3.86 13.66 4.27C13.92 4.35 14.2 4.21 14.29 3.95L15.07 1.74C15.17 1.46 15.01 1.16 14.72 1.1Z" fill="#FFFFFF" fill-opacity="1.000000" fill-rule="nonzero"/>
	<path id="Vector" d="M2.79 8.14L2.37 7.81C2.11 7.62 1.75 7.71 1.63 8.01C0.24 11.43 0.84 14.58 0.94 15.05C0.94 15.08 0.97 15.11 1.01 15.11C1.06 15.11 1.09 15.06 1.09 15.01C1 14.43 0.62 11.24 2.8 8.19L2.8 8.19C2.82 8.17 2.81 8.15 2.79 8.14Z" fill="#FFFFFF" fill-opacity="1.000000" fill-rule="nonzero"/>
	<path id="Vector" d="M19.37 9.38C20.28 11.5 20.4 13.61 20.41 14.57C20.41 14.86 20.64 15.11 20.93 15.11L23.22 15.11C23.45 15.11 23.65 14.94 23.69 14.71C23.83 13.65 24.06 10.65 22.59 7.57C22.47 7.31 22.15 7.22 21.91 7.37L19.58 8.73C19.36 8.86 19.27 9.14 19.37 9.38Z" fill="#FFFFFF" fill-opacity="1.000000" fill-rule="nonzero"/>
	<path id="at-" d="M50.27 6.91L53.06 6.91L53.06 8.61L50.27 8.61L50.27 16.25C50.27 17.95 51.12 18.22 52 18.22C52.45 18.22 52.72 18.16 52.89 18.12L53.3 19.92C53.03 20.03 52.55 20.16 51.8 20.16C50.1 20.16 48.25 19.08 48.25 16.79L48.25 8.61L46.28 8.61L46.28 6.91L48.25 6.91L48.25 3.77L50.27 3.77L50.27 6.91ZM41.58 18.22C41.16 19.08 39.97 20.3 37.69 20.3C35.2 20.3 33.22 18.83 33.22 16.28C33.22 13.28 35.87 12.74 38.3 12.42C40.69 12.12 41.67 12.21 41.67 11.24L41.67 11.16C41.67 9.49 40.77 8.5 38.91 8.5C37 8.5 35.95 9.53 35.5 10.49L33.59 9.8C34.62 7.41 36.87 6.74 38.84 6.74C40.52 6.74 43.69 7.21 43.69 11.37L43.69 20L41.67 20L41.67 18.22L41.58 18.22ZM55.48 11.58L63.12 11.58L63.12 13.45L55.48 13.45L55.48 11.58ZM35.24 16.38C35.24 17.78 36.4 18.5 38 18.5C40.38 18.5 41.67 16.9 41.67 15.25L41.67 13.41C41.33 13.83 39.05 14.07 38.2 14.16C36.63 14.37 35.24 14.84 35.24 16.38Z" fill="#333153" fill-opacity="1.000000" fill-rule="evenodd"/>
	<path id="work" d="M114.69 20L111.06 20L111.06 2.54L114.69 2.54L114.69 11.87L114.89 11.87L119.08 6.91L123.25 6.91L118.39 12.57L123.49 20L119.24 20L115.67 14.72L114.69 15.83L114.69 20ZM104.88 20L101.25 20L101.25 6.91L104.77 6.91L104.77 9.19L104.91 9.19C105.39 7.57 106.59 6.72 108.05 6.72C108.42 6.72 108.87 6.77 109.19 6.85L109.19 10.06C108.86 9.96 108.16 9.87 107.66 9.87C106.06 9.87 104.88 10.98 104.88 12.59L104.88 20ZM98.88 13.5C98.88 17.53 96.41 20.25 92.44 20.25C88.47 20.25 85.99 17.53 85.99 13.5C85.99 9.44 88.47 6.74 92.44 6.74C96.41 6.74 98.88 9.44 98.88 13.5ZM72.86 20L69.03 20L65.46 6.91L69.14 6.91L71.16 15.7L71.28 15.7L73.4 6.91L77 6.91L79.15 15.65L79.26 15.65L81.25 6.91L84.92 6.91L81.37 20L77.52 20L75.27 11.76L75.11 11.76L72.86 20ZM89.69 13.47C89.69 15.76 90.62 17.44 92.46 17.44C94.26 17.44 95.19 15.76 95.19 13.47C95.19 11.19 94.26 9.5 92.46 9.5C90.62 9.5 89.69 11.19 89.69 13.47Z" fill="#333153" fill-opacity="1.000000" fill-rule="evenodd"/>
</svg>
